<svg width="353" height="321" viewBox="0 0 353 321" fill="none" xmlns="http://www.w3.org/2000/svg">
<rect width="353" height="321" rx="40" fill="#141414"/>
<mask id="path-2-outside-1_1_6" maskUnits="userSpaceOnUse" x="53" y="77" width="267" height="166" fill="black">
<rect fill="white" x="53" y="77" width="267" height="166"/>
<path d="M146.734 123.984C146.005 117.161 142.932 111.849 137.516 108.047C132.151 104.245 125.172 102.344 116.578 102.344C110.536 102.344 105.354 103.255 101.031 105.078C96.7083 106.901 93.401 109.375 91.1094 112.5C88.8177 115.625 87.6458 119.193 87.5938 123.203C87.5938 126.536 88.349 129.427 89.8594 131.875C91.4219 134.323 93.5313 136.406 96.1875 138.125C98.8438 139.792 101.786 141.198 105.016 142.344C108.245 143.49 111.5 144.453 114.781 145.234L129.781 148.984C135.823 150.391 141.63 152.292 147.203 154.687C152.828 157.083 157.854 160.104 162.281 163.75C166.76 167.396 170.302 171.797 172.906 176.953C175.51 182.109 176.813 188.151 176.813 195.078C176.813 204.453 174.417 212.708 169.625 219.844C164.833 226.927 157.906 232.474 148.844 236.484C139.833 240.443 128.922 242.422 116.109 242.422C103.661 242.422 92.8542 240.495 83.6875 236.641C74.5729 232.786 67.4375 227.161 62.2813 219.766C57.1771 212.37 54.4167 203.359 54 192.734H82.5156C82.9323 198.307 84.651 202.943 87.6719 206.641C90.6927 210.339 94.625 213.099 99.4688 214.922C104.365 216.745 109.833 217.656 115.875 217.656C122.177 217.656 127.698 216.719 132.438 214.844C137.229 212.917 140.979 210.26 143.688 206.875C146.396 203.437 147.776 199.427 147.828 194.844C147.776 190.677 146.552 187.24 144.156 184.531C141.76 181.771 138.401 179.479 134.078 177.656C129.807 175.781 124.807 174.115 119.078 172.656L100.875 167.969C87.6979 164.583 77.2813 159.453 69.625 152.578C62.0208 145.651 58.2188 136.458 58.2188 125C58.2188 115.573 60.7708 107.318 65.875 100.234C71.0313 93.151 78.0365 87.6562 86.8906 83.75C95.7448 79.7917 105.771 77.8125 116.969 77.8125C128.323 77.8125 138.271 79.7917 146.813 83.75C155.406 87.6562 162.151 93.099 167.047 100.078C171.943 107.005 174.469 114.974 174.625 123.984H146.734ZM202.652 240V80H262.652C274.944 80 285.257 82.2917 293.59 86.875C301.975 91.4583 308.303 97.7604 312.574 105.781C316.897 113.75 319.059 122.812 319.059 132.969C319.059 143.229 316.897 152.344 312.574 160.313C308.251 168.281 301.871 174.557 293.434 179.141C284.996 183.672 274.605 185.937 262.262 185.937H222.496V162.109H258.355C265.543 162.109 271.428 160.859 276.012 158.359C280.595 155.859 283.98 152.422 286.168 148.047C288.408 143.672 289.527 138.646 289.527 132.969C289.527 127.292 288.408 122.292 286.168 117.969C283.98 113.646 280.569 110.286 275.934 107.891C271.35 105.443 265.439 104.219 258.199 104.219H231.637V240H202.652Z"/>
</mask>
<path d="M146.734 123.984C146.005 117.161 142.932 111.849 137.516 108.047C132.151 104.245 125.172 102.344 116.578 102.344C110.536 102.344 105.354 103.255 101.031 105.078C96.7083 106.901 93.401 109.375 91.1094 112.5C88.8177 115.625 87.6458 119.193 87.5938 123.203C87.5938 126.536 88.349 129.427 89.8594 131.875C91.4219 134.323 93.5313 136.406 96.1875 138.125C98.8438 139.792 101.786 141.198 105.016 142.344C108.245 143.49 111.5 144.453 114.781 145.234L129.781 148.984C135.823 150.391 141.63 152.292 147.203 154.687C152.828 157.083 157.854 160.104 162.281 163.75C166.76 167.396 170.302 171.797 172.906 176.953C175.51 182.109 176.813 188.151 176.813 195.078C176.813 204.453 174.417 212.708 169.625 219.844C164.833 226.927 157.906 232.474 148.844 236.484C139.833 240.443 128.922 242.422 116.109 242.422C103.661 242.422 92.8542 240.495 83.6875 236.641C74.5729 232.786 67.4375 227.161 62.2813 219.766C57.1771 212.37 54.4167 203.359 54 192.734H82.5156C82.9323 198.307 84.651 202.943 87.6719 206.641C90.6927 210.339 94.625 213.099 99.4688 214.922C104.365 216.745 109.833 217.656 115.875 217.656C122.177 217.656 127.698 216.719 132.438 214.844C137.229 212.917 140.979 210.26 143.688 206.875C146.396 203.437 147.776 199.427 147.828 194.844C147.776 190.677 146.552 187.24 144.156 184.531C141.76 181.771 138.401 179.479 134.078 177.656C129.807 175.781 124.807 174.115 119.078 172.656L100.875 167.969C87.6979 164.583 77.2813 159.453 69.625 152.578C62.0208 145.651 58.2188 136.458 58.2188 125C58.2188 115.573 60.7708 107.318 65.875 100.234C71.0313 93.151 78.0365 87.6562 86.8906 83.75C95.7448 79.7917 105.771 77.8125 116.969 77.8125C128.323 77.8125 138.271 79.7917 146.813 83.75C155.406 87.6562 162.151 93.099 167.047 100.078C171.943 107.005 174.469 114.974 174.625 123.984H146.734ZM202.652 240V80H262.652C274.944 80 285.257 82.2917 293.59 86.875C301.975 91.4583 308.303 97.7604 312.574 105.781C316.897 113.75 319.059 122.812 319.059 132.969C319.059 143.229 316.897 152.344 312.574 160.313C308.251 168.281 301.871 174.557 293.434 179.141C284.996 183.672 274.605 185.937 262.262 185.937H222.496V162.109H258.355C265.543 162.109 271.428 160.859 276.012 158.359C280.595 155.859 283.98 152.422 286.168 148.047C288.408 143.672 289.527 138.646 289.527 132.969C289.527 127.292 288.408 122.292 286.168 117.969C283.98 113.646 280.569 110.286 275.934 107.891C271.35 105.443 265.439 104.219 258.199 104.219H231.637V240H202.652Z" fill="#80060C"/>
<path d="M146.734 123.984L146.237 124.038L146.285 124.484H146.734V123.984ZM137.516 108.047L137.227 108.455L137.228 108.456L137.516 108.047ZM101.031 105.078L101.226 105.539L101.226 105.539L101.031 105.078ZM91.1094 112.5L90.7062 112.204L90.7062 112.204L91.1094 112.5ZM87.5938 123.203L87.0938 123.197V123.203H87.5938ZM89.8594 131.875L89.4338 132.138L89.4379 132.144L89.8594 131.875ZM96.1875 138.125L95.9159 138.545L95.9218 138.549L96.1875 138.125ZM105.016 142.344L104.848 142.815L104.848 142.815L105.016 142.344ZM114.781 145.234L114.903 144.749L114.897 144.748L114.781 145.234ZM129.781 148.984L129.66 149.47L129.668 149.471L129.781 148.984ZM147.203 154.687L147.006 155.147L147.007 155.148L147.203 154.687ZM162.281 163.75L161.963 164.136L161.966 164.138L162.281 163.75ZM169.625 219.844L170.039 220.124L170.04 220.122L169.625 219.844ZM148.844 236.484L149.045 236.942L149.046 236.942L148.844 236.484ZM83.6875 236.641L83.4928 237.101L83.4937 237.102L83.6875 236.641ZM62.2813 219.766L61.8697 220.05L61.8711 220.052L62.2813 219.766ZM54 192.734V192.234H53.48L53.5004 192.754L54 192.734ZM82.5156 192.734L83.0142 192.697L82.9796 192.234H82.5156V192.734ZM87.6719 206.641L88.0591 206.324L88.0591 206.324L87.6719 206.641ZM99.4688 214.922L99.2926 215.39L99.2943 215.39L99.4688 214.922ZM132.438 214.844L132.621 215.309L132.624 215.308L132.438 214.844ZM143.688 206.875L144.078 207.187L144.08 207.184L143.688 206.875ZM147.828 194.844L148.328 194.849L148.328 194.837L147.828 194.844ZM144.156 184.531L143.779 184.859L143.782 184.863L144.156 184.531ZM134.078 177.656L133.877 178.114L133.884 178.117L134.078 177.656ZM119.078 172.656L118.953 173.14L118.955 173.141L119.078 172.656ZM100.875 167.969L101 167.485L100.999 167.484L100.875 167.969ZM69.625 152.578L69.2883 152.948L69.2909 152.95L69.625 152.578ZM65.875 100.234L65.4708 99.9401L65.4693 99.9421L65.875 100.234ZM86.8906 83.75L87.0924 84.2075L87.0947 84.2065L86.8906 83.75ZM146.813 83.75L146.602 84.2037L146.606 84.2052L146.813 83.75ZM167.047 100.078L166.638 100.365L166.639 100.367L167.047 100.078ZM174.625 123.984V124.484H175.134L175.125 123.976L174.625 123.984ZM147.232 123.931C146.488 116.971 143.342 111.526 137.803 107.638L137.228 108.456C142.522 112.172 145.523 117.352 146.237 124.038L147.232 123.931ZM137.805 107.639C132.333 103.761 125.244 101.844 116.578 101.844V102.844C125.1 102.844 131.969 104.729 137.227 108.455L137.805 107.639ZM116.578 101.844C110.488 101.844 105.236 102.762 100.837 104.617L101.226 105.539C105.472 103.748 110.585 102.844 116.578 102.844V101.844ZM100.837 104.617C96.4483 106.468 93.0615 108.992 90.7062 112.204L91.5126 112.796C93.7406 109.758 96.9683 107.334 101.226 105.539L100.837 104.617ZM90.7062 112.204C88.3507 115.416 87.1472 119.086 87.0938 123.197L88.0937 123.21C88.1445 119.299 89.2847 115.834 91.5126 112.796L90.7062 112.204ZM87.0938 123.203C87.0938 126.614 87.8674 129.599 89.4339 132.138L90.2849 131.612C88.8305 129.255 88.0938 126.459 88.0938 123.203H87.0938ZM89.4379 132.144C91.0423 134.658 93.2049 136.791 95.9159 138.545L96.4591 137.705C93.8576 136.022 91.8014 133.988 90.2808 131.606L89.4379 132.144ZM95.9218 138.549C98.6117 140.236 101.588 141.658 104.848 142.815L105.183 141.873C101.985 140.738 99.0758 139.347 96.4532 137.701L95.9218 138.549ZM104.848 142.815C108.094 143.967 111.367 144.935 114.665 145.721L114.897 144.748C111.633 143.971 108.395 143.012 105.183 141.873L104.848 142.815ZM114.66 145.719L129.66 149.469L129.903 148.499L114.903 144.749L114.66 145.719ZM129.668 149.471C135.681 150.871 141.461 152.763 147.006 155.147L147.401 154.228C141.8 151.82 135.964 149.91 129.895 148.497L129.668 149.471ZM147.007 155.148C152.591 157.526 157.576 160.522 161.963 164.136L162.599 163.364C158.133 159.686 153.065 156.641 147.399 154.227L147.007 155.148ZM161.966 164.138C166.39 167.739 169.887 172.085 172.46 177.179L173.353 176.728C170.717 171.509 167.131 167.052 162.597 163.362L161.966 164.138ZM172.46 177.179C175.022 182.252 176.313 188.214 176.313 195.078H177.313C177.313 188.088 175.998 181.966 173.353 176.728L172.46 177.179ZM176.313 195.078C176.313 204.363 173.941 212.519 169.21 219.565L170.04 220.122C174.892 212.897 177.313 204.543 177.313 195.078H176.313ZM169.211 219.564C164.48 226.558 157.632 232.049 148.641 236.027L149.046 236.942C158.181 232.899 165.187 227.297 170.039 220.124L169.211 219.564ZM148.643 236.027C139.712 239.95 128.873 241.922 116.109 241.922V242.922C128.971 242.922 139.955 240.935 149.045 236.942L148.643 236.027ZM116.109 241.922C103.712 241.922 92.9733 240.002 83.8813 236.18L83.4937 237.102C92.7351 240.987 103.611 242.922 116.109 242.922V241.922ZM83.8822 236.18C74.8457 232.359 67.7885 226.791 62.6914 219.48L61.8711 220.052C67.0865 227.532 74.3001 233.214 83.4928 237.101L83.8822 236.18ZM62.6928 219.482C57.6516 212.177 54.9133 203.263 54.4996 192.715L53.5004 192.754C53.9201 203.456 56.7025 212.562 61.8697 220.05L62.6928 219.482ZM54 193.234H82.5156V192.234H54V193.234ZM82.017 192.772C82.44 198.429 84.1885 203.167 87.2847 206.957L88.0591 206.324C85.1136 202.719 83.4246 198.186 83.0142 192.697L82.017 192.772ZM87.2847 206.957C90.3659 210.729 94.3735 213.539 99.2926 215.39L99.6449 214.454C94.8765 212.659 91.0195 209.948 88.0591 206.324L87.2847 206.957ZM99.2943 215.39C104.254 217.237 109.783 218.156 115.875 218.156V217.156C109.884 217.156 104.475 216.252 99.6432 214.453L99.2943 215.39ZM115.875 218.156C122.226 218.156 127.811 217.212 132.621 215.309L132.254 214.379C127.585 216.226 122.129 217.156 115.875 217.156V218.156ZM132.624 215.308C137.48 213.355 141.306 210.652 144.078 207.187L143.297 206.563C140.652 209.869 136.978 212.479 132.251 214.38L132.624 215.308ZM144.08 207.184C146.86 203.656 148.275 199.537 148.328 194.849L147.328 194.838C147.277 199.317 145.931 203.219 143.295 206.566L144.08 207.184ZM148.328 194.837C148.275 190.57 147.018 187.012 144.531 184.2L143.782 184.863C146.086 187.468 147.277 190.784 147.328 194.85L148.328 194.837ZM144.534 184.204C142.076 181.371 138.646 179.04 134.272 177.196L133.884 178.117C138.156 179.918 141.445 182.17 143.779 184.859L144.534 184.204ZM134.279 177.198C129.978 175.31 124.951 173.635 119.201 172.172L118.955 173.141C124.664 174.594 129.637 176.253 133.877 178.114L134.279 177.198ZM119.203 172.172L101 167.485L100.75 168.453L118.953 173.14L119.203 172.172ZM100.999 167.484C87.8761 164.113 77.5393 159.013 69.9591 152.206L69.2909 152.95C77.0232 159.893 87.5197 165.054 100.751 168.453L100.999 167.484ZM69.9617 152.208C62.474 145.388 58.7188 136.335 58.7188 125H57.7188C57.7188 136.581 61.5676 145.915 69.2883 152.948L69.9617 152.208ZM58.7188 125C58.7188 115.669 61.2428 107.518 66.2807 100.527L65.4693 99.9421C60.2989 107.117 57.7188 115.477 57.7188 125H58.7188ZM66.2792 100.529C71.3783 93.5239 78.3103 88.0819 87.0924 84.2075L86.6888 83.2925C77.7626 87.2306 70.6842 92.7782 65.4708 99.9401L66.2792 100.529ZM87.0947 84.2065C95.8755 80.2809 105.83 78.3125 116.969 78.3125V77.3125C105.711 77.3125 95.6141 79.3024 86.6866 83.2935L87.0947 84.2065ZM116.969 78.3125C128.265 78.3125 138.139 80.2815 146.602 84.2036L147.023 83.2963C138.403 79.3018 128.381 77.3125 116.969 77.3125V78.3125ZM146.606 84.2052C155.127 88.0786 161.798 93.4668 166.638 100.365L167.456 99.791C162.504 92.7311 155.685 87.2339 147.019 83.2948L146.606 84.2052ZM166.639 100.367C171.473 107.207 173.97 115.076 174.125 123.993L175.125 123.976C174.967 114.872 172.413 106.804 167.455 99.7895L166.639 100.367ZM174.625 123.484H146.734V124.484H174.625V123.484ZM202.652 240H202.152V240.5H202.652V240ZM202.652 80V79.5H202.152V80H202.652ZM293.59 86.875L293.349 87.3131L293.35 87.3137L293.59 86.875ZM312.574 105.781L312.133 106.016L312.135 106.02L312.574 105.781ZM312.574 160.313L313.014 160.551L313.014 160.551L312.574 160.313ZM293.434 179.141L293.67 179.581L293.672 179.58L293.434 179.141ZM222.496 185.937H221.996V186.437H222.496V185.937ZM222.496 162.109V161.609H221.996V162.109H222.496ZM276.012 158.359L276.251 158.798L276.251 158.798L276.012 158.359ZM286.168 148.047L285.723 147.819L285.721 147.823L286.168 148.047ZM286.168 117.969L285.722 118.195L285.724 118.199L286.168 117.969ZM275.934 107.891L275.698 108.332L275.704 108.335L275.934 107.891ZM231.637 104.219V103.719H231.137V104.219H231.637ZM231.637 240V240.5H232.137V240H231.637ZM203.152 240V80H202.152V240H203.152ZM202.652 80.5H262.652V79.5H202.652V80.5ZM262.652 80.5C274.884 80.5 285.108 82.7805 293.349 87.3131L293.831 86.4369C285.405 81.8028 275.004 79.5 262.652 79.5V80.5ZM293.35 87.3137C301.654 91.8528 307.91 98.0861 312.133 106.016L313.016 105.546C308.696 97.4347 302.296 91.0638 293.83 86.4363L293.35 87.3137ZM312.135 106.02C316.413 113.907 318.559 122.886 318.559 132.969H319.559C319.559 122.739 317.381 113.593 313.014 105.543L312.135 106.02ZM318.559 132.969C318.559 143.157 316.413 152.188 312.135 160.074L313.014 160.551C317.381 152.5 319.559 143.301 319.559 132.969H318.559ZM312.135 160.074C307.861 167.953 301.553 174.161 293.195 178.701L293.672 179.58C302.189 174.953 308.642 168.61 313.014 160.551L312.135 160.074ZM293.197 178.7C284.85 183.183 274.546 185.437 262.262 185.437V186.437C274.665 186.437 285.142 184.161 293.67 179.581L293.197 178.7ZM262.262 185.437H222.496V186.437H262.262V185.437ZM222.996 185.937V162.109H221.996V185.937H222.996ZM222.496 162.609H258.355V161.609H222.496V162.609ZM258.355 162.609C265.597 162.609 271.572 161.351 276.251 158.798L275.772 157.92C271.285 160.368 265.489 161.609 258.355 161.609V162.609ZM276.251 158.798C280.918 156.253 284.379 152.743 286.615 148.27L285.721 147.823C283.582 152.101 280.272 155.466 275.772 157.92L276.251 158.798ZM286.613 148.275C288.894 143.819 290.027 138.713 290.027 132.969H289.027C289.027 138.579 287.921 143.525 285.723 147.819L286.613 148.275ZM290.027 132.969C290.027 127.225 288.894 122.144 286.612 117.739L285.724 118.199C287.921 122.44 289.027 127.358 289.027 132.969H290.027ZM286.614 117.743C284.375 113.319 280.884 109.887 276.163 107.446L275.704 108.335C280.254 110.686 283.586 113.973 285.722 118.195L286.614 117.743ZM276.169 107.45C271.49 104.951 265.49 103.719 258.199 103.719V104.719C265.387 104.719 271.21 105.935 275.698 108.332L276.169 107.45ZM258.199 103.719H231.637V104.719H258.199V103.719ZM231.137 104.219V240H232.137V104.219H231.137ZM231.637 239.5H202.652V240.5H231.637V239.5Z" fill="black" mask="url(#path-2-outside-1_1_6)"/>
<mask id="path-4-outside-2_1_6" maskUnits="userSpaceOnUse" x="36" y="77" width="267" height="166" fill="black">
<rect fill="white" x="36" y="77" width="267" height="166"/>
<path d="M129.734 123.984C129.005 117.161 125.932 111.849 120.516 108.047C115.151 104.245 108.172 102.344 99.5781 102.344C93.5365 102.344 88.3542 103.255 84.0313 105.078C79.7083 106.901 76.401 109.375 74.1094 112.5C71.8177 115.625 70.6458 119.193 70.5938 123.203C70.5938 126.536 71.349 129.427 72.8594 131.875C74.4219 134.323 76.5313 136.406 79.1875 138.125C81.8438 139.792 84.7865 141.198 88.0156 142.344C91.2448 143.49 94.5 144.453 97.7813 145.234L112.781 148.984C118.823 150.391 124.63 152.292 130.203 154.687C135.828 157.083 140.854 160.104 145.281 163.75C149.76 167.396 153.302 171.797 155.906 176.953C158.51 182.109 159.813 188.151 159.813 195.078C159.813 204.453 157.417 212.708 152.625 219.844C147.833 226.927 140.906 232.474 131.844 236.484C122.833 240.443 111.922 242.422 99.1094 242.422C86.6615 242.422 75.8542 240.495 66.6875 236.641C57.5729 232.786 50.4375 227.161 45.2813 219.766C40.1771 212.37 37.4167 203.359 37 192.734H65.5156C65.9323 198.307 67.651 202.943 70.6719 206.641C73.6927 210.339 77.625 213.099 82.4688 214.922C87.3646 216.745 92.8333 217.656 98.875 217.656C105.177 217.656 110.698 216.719 115.438 214.844C120.229 212.917 123.979 210.26 126.688 206.875C129.396 203.437 130.776 199.427 130.828 194.844C130.776 190.677 129.552 187.24 127.156 184.531C124.76 181.771 121.401 179.479 117.078 177.656C112.807 175.781 107.807 174.115 102.078 172.656L83.875 167.969C70.6979 164.583 60.2813 159.453 52.625 152.578C45.0208 145.651 41.2188 136.458 41.2188 125C41.2188 115.573 43.7708 107.318 48.875 100.234C54.0313 93.151 61.0365 87.6562 69.8906 83.75C78.7448 79.7917 88.7708 77.8125 99.9688 77.8125C111.323 77.8125 121.271 79.7917 129.813 83.75C138.406 87.6562 145.151 93.099 150.047 100.078C154.943 107.005 157.469 114.974 157.625 123.984H129.734ZM185.652 240V80H245.652C257.944 80 268.257 82.2917 276.59 86.875C284.975 91.4583 291.303 97.7604 295.574 105.781C299.897 113.75 302.059 122.812 302.059 132.969C302.059 143.229 299.897 152.344 295.574 160.313C291.251 168.281 284.871 174.557 276.434 179.141C267.996 183.672 257.605 185.937 245.262 185.937H205.496V162.109H241.355C248.543 162.109 254.428 160.859 259.012 158.359C263.595 155.859 266.98 152.422 269.168 148.047C271.408 143.672 272.527 138.646 272.527 132.969C272.527 127.292 271.408 122.292 269.168 117.969C266.98 113.646 263.569 110.286 258.934 107.891C254.35 105.443 248.439 104.219 241.199 104.219H214.637V240H185.652Z"/>
</mask>
<path d="M129.734 123.984C129.005 117.161 125.932 111.849 120.516 108.047C115.151 104.245 108.172 102.344 99.5781 102.344C93.5365 102.344 88.3542 103.255 84.0313 105.078C79.7083 106.901 76.401 109.375 74.1094 112.5C71.8177 115.625 70.6458 119.193 70.5938 123.203C70.5938 126.536 71.349 129.427 72.8594 131.875C74.4219 134.323 76.5313 136.406 79.1875 138.125C81.8438 139.792 84.7865 141.198 88.0156 142.344C91.2448 143.49 94.5 144.453 97.7813 145.234L112.781 148.984C118.823 150.391 124.63 152.292 130.203 154.687C135.828 157.083 140.854 160.104 145.281 163.75C149.76 167.396 153.302 171.797 155.906 176.953C158.51 182.109 159.813 188.151 159.813 195.078C159.813 204.453 157.417 212.708 152.625 219.844C147.833 226.927 140.906 232.474 131.844 236.484C122.833 240.443 111.922 242.422 99.1094 242.422C86.6615 242.422 75.8542 240.495 66.6875 236.641C57.5729 232.786 50.4375 227.161 45.2813 219.766C40.1771 212.37 37.4167 203.359 37 192.734H65.5156C65.9323 198.307 67.651 202.943 70.6719 206.641C73.6927 210.339 77.625 213.099 82.4688 214.922C87.3646 216.745 92.8333 217.656 98.875 217.656C105.177 217.656 110.698 216.719 115.438 214.844C120.229 212.917 123.979 210.26 126.688 206.875C129.396 203.437 130.776 199.427 130.828 194.844C130.776 190.677 129.552 187.24 127.156 184.531C124.76 181.771 121.401 179.479 117.078 177.656C112.807 175.781 107.807 174.115 102.078 172.656L83.875 167.969C70.6979 164.583 60.2813 159.453 52.625 152.578C45.0208 145.651 41.2188 136.458 41.2188 125C41.2188 115.573 43.7708 107.318 48.875 100.234C54.0313 93.151 61.0365 87.6562 69.8906 83.75C78.7448 79.7917 88.7708 77.8125 99.9688 77.8125C111.323 77.8125 121.271 79.7917 129.813 83.75C138.406 87.6562 145.151 93.099 150.047 100.078C154.943 107.005 157.469 114.974 157.625 123.984H129.734ZM185.652 240V80H245.652C257.944 80 268.257 82.2917 276.59 86.875C284.975 91.4583 291.303 97.7604 295.574 105.781C299.897 113.75 302.059 122.812 302.059 132.969C302.059 143.229 299.897 152.344 295.574 160.313C291.251 168.281 284.871 174.557 276.434 179.141C267.996 183.672 257.605 185.937 245.262 185.937H205.496V162.109H241.355C248.543 162.109 254.428 160.859 259.012 158.359C263.595 155.859 266.98 152.422 269.168 148.047C271.408 143.672 272.527 138.646 272.527 132.969C272.527 127.292 271.408 122.292 269.168 117.969C266.98 113.646 263.569 110.286 258.934 107.891C254.35 105.443 248.439 104.219 241.199 104.219H214.637V240H185.652Z" fill="#E50914"/>
<path d="M129.734 123.984L129.237 124.038L129.285 124.484H129.734V123.984ZM120.516 108.047L120.227 108.455L120.228 108.456L120.516 108.047ZM84.0313 105.078L84.2255 105.539L84.2255 105.539L84.0313 105.078ZM74.1094 112.5L73.7062 112.204L73.7062 112.204L74.1094 112.5ZM70.5938 123.203L70.0938 123.197V123.203H70.5938ZM72.8594 131.875L72.4338 132.138L72.4379 132.144L72.8594 131.875ZM79.1875 138.125L78.9159 138.545L78.9218 138.549L79.1875 138.125ZM88.0156 142.344L87.8484 142.815L87.8484 142.815L88.0156 142.344ZM97.7813 145.234L97.9025 144.749L97.8971 144.748L97.7813 145.234ZM112.781 148.984L112.66 149.47L112.668 149.471L112.781 148.984ZM130.203 154.687L130.006 155.147L130.007 155.148L130.203 154.687ZM145.281 163.75L144.963 164.136L144.966 164.138L145.281 163.75ZM152.625 219.844L153.039 220.124L153.04 220.122L152.625 219.844ZM131.844 236.484L132.045 236.942L132.046 236.942L131.844 236.484ZM66.6875 236.641L66.4928 237.101L66.4937 237.102L66.6875 236.641ZM45.2813 219.766L44.8697 220.05L44.8711 220.052L45.2813 219.766ZM37 192.734V192.234H36.48L36.5004 192.754L37 192.734ZM65.5156 192.734L66.0142 192.697L65.9796 192.234H65.5156V192.734ZM70.6719 206.641L71.0591 206.324L71.0591 206.324L70.6719 206.641ZM82.4688 214.922L82.2926 215.39L82.2943 215.39L82.4688 214.922ZM115.438 214.844L115.621 215.309L115.624 215.308L115.438 214.844ZM126.688 206.875L127.078 207.187L127.08 207.184L126.688 206.875ZM130.828 194.844L131.328 194.849L131.328 194.837L130.828 194.844ZM127.156 184.531L126.779 184.859L126.782 184.863L127.156 184.531ZM117.078 177.656L116.877 178.114L116.884 178.117L117.078 177.656ZM102.078 172.656L101.953 173.14L101.955 173.141L102.078 172.656ZM83.875 167.969L83.9997 167.485L83.9994 167.484L83.875 167.969ZM52.625 152.578L52.2883 152.948L52.2909 152.95L52.625 152.578ZM48.875 100.234L48.4708 99.9401L48.4693 99.9421L48.875 100.234ZM69.8906 83.75L70.0924 84.2075L70.0947 84.2065L69.8906 83.75ZM129.813 83.75L129.602 84.2037L129.606 84.2052L129.813 83.75ZM150.047 100.078L149.638 100.365L149.639 100.367L150.047 100.078ZM157.625 123.984V124.484H158.134L158.125 123.976L157.625 123.984ZM130.232 123.931C129.488 116.971 126.342 111.526 120.803 107.638L120.228 108.456C125.522 112.172 128.523 117.352 129.237 124.038L130.232 123.931ZM120.805 107.639C115.333 103.761 108.244 101.844 99.5781 101.844V102.844C108.1 102.844 114.969 104.729 120.227 108.455L120.805 107.639ZM99.5781 101.844C93.4881 101.844 88.2363 102.762 83.837 104.617L84.2255 105.539C88.472 103.748 93.5848 102.844 99.5781 102.844V101.844ZM83.837 104.617C79.4483 106.468 76.0615 108.992 73.7062 112.204L74.5126 112.796C76.7406 109.758 79.9683 107.334 84.2255 105.539L83.837 104.617ZM73.7062 112.204C71.3507 115.416 70.1472 119.086 70.0938 123.197L71.0937 123.21C71.1445 119.299 72.2847 115.834 74.5126 112.796L73.7062 112.204ZM70.0938 123.203C70.0938 126.614 70.8674 129.599 72.4339 132.138L73.2849 131.612C71.8305 129.255 71.0938 126.459 71.0938 123.203H70.0938ZM72.4379 132.144C74.0423 134.658 76.2049 136.791 78.9159 138.545L79.4591 137.705C76.8576 136.022 74.8014 133.988 73.2808 131.606L72.4379 132.144ZM78.9218 138.549C81.6117 140.236 84.5879 141.658 87.8484 142.815L88.1828 141.873C84.985 140.738 82.0758 139.347 79.4532 137.701L78.9218 138.549ZM87.8484 142.815C91.0942 143.967 94.3665 144.935 97.6654 145.721L97.8971 144.748C94.6335 143.971 91.3954 143.012 88.1828 141.873L87.8484 142.815ZM97.66 145.719L112.66 149.469L112.903 148.499L97.9025 144.749L97.66 145.719ZM112.668 149.471C118.681 150.871 124.461 152.763 130.006 155.147L130.401 154.228C124.8 151.82 118.964 149.91 112.895 148.497L112.668 149.471ZM130.007 155.148C135.591 157.526 140.576 160.522 144.963 164.136L145.599 163.364C141.133 159.686 136.065 156.641 130.399 154.227L130.007 155.148ZM144.966 164.138C149.39 167.739 152.887 172.085 155.46 177.179L156.353 176.728C153.717 171.509 150.131 167.052 145.597 163.362L144.966 164.138ZM155.46 177.179C158.022 182.252 159.313 188.214 159.313 195.078H160.313C160.313 188.088 158.998 181.966 156.353 176.728L155.46 177.179ZM159.313 195.078C159.313 204.363 156.941 212.519 152.21 219.565L153.04 220.122C157.892 212.897 160.313 204.543 160.313 195.078H159.313ZM152.211 219.564C147.48 226.558 140.632 232.049 131.641 236.027L132.046 236.942C141.181 232.899 148.187 227.297 153.039 220.124L152.211 219.564ZM131.643 236.027C122.712 239.95 111.873 241.922 99.1094 241.922V242.922C111.971 242.922 122.955 240.935 132.045 236.942L131.643 236.027ZM99.1094 241.922C86.7118 241.922 75.9733 240.002 66.8813 236.18L66.4937 237.102C75.7351 240.987 86.6111 242.922 99.1094 242.922V241.922ZM66.8822 236.18C57.8457 232.359 50.7885 226.791 45.6914 219.48L44.8711 220.052C50.0865 227.532 57.3001 233.214 66.4928 237.101L66.8822 236.18ZM45.6928 219.482C40.6516 212.177 37.9133 203.263 37.4996 192.715L36.5004 192.754C36.9201 203.456 39.7025 212.562 44.8697 220.05L45.6928 219.482ZM37 193.234H65.5156V192.234H37V193.234ZM65.017 192.772C65.44 198.429 67.1885 203.167 70.2847 206.957L71.0591 206.324C68.1136 202.719 66.4246 198.186 66.0142 192.697L65.017 192.772ZM70.2847 206.957C73.3659 210.729 77.3735 213.539 82.2926 215.39L82.6449 214.454C77.8765 212.659 74.0195 209.948 71.0591 206.324L70.2847 206.957ZM82.2943 215.39C87.2539 217.237 92.7829 218.156 98.875 218.156V217.156C92.8837 217.156 87.4752 216.252 82.6432 214.453L82.2943 215.39ZM98.875 218.156C105.226 218.156 110.811 217.212 115.621 215.309L115.254 214.379C110.585 216.226 105.129 217.156 98.875 217.156V218.156ZM115.624 215.308C120.48 213.355 124.306 210.652 127.078 207.187L126.297 206.563C123.652 209.869 119.978 212.479 115.251 214.38L115.624 215.308ZM127.08 207.184C129.86 203.656 131.275 199.537 131.328 194.849L130.328 194.838C130.277 199.317 128.931 203.219 126.295 206.566L127.08 207.184ZM131.328 194.837C131.275 190.57 130.018 187.012 127.531 184.2L126.782 184.863C129.086 187.468 130.277 190.784 130.328 194.85L131.328 194.837ZM127.534 184.204C125.076 181.371 121.646 179.04 117.272 177.196L116.884 178.117C121.156 179.918 124.445 182.17 126.779 184.859L127.534 184.204ZM117.279 177.198C112.978 175.31 107.951 173.635 102.201 172.172L101.955 173.141C107.664 174.594 112.637 176.253 116.877 178.114L117.279 177.198ZM102.203 172.172L83.9997 167.485L83.7503 168.453L101.953 173.14L102.203 172.172ZM83.9994 167.484C70.8761 164.113 60.5393 159.013 52.9591 152.206L52.2909 152.95C60.0232 159.893 70.5197 165.054 83.7506 168.453L83.9994 167.484ZM52.9617 152.208C45.474 145.388 41.7188 136.335 41.7188 125H40.7188C40.7188 136.581 44.5676 145.915 52.2883 152.948L52.9617 152.208ZM41.7188 125C41.7188 115.669 44.2428 107.518 49.2807 100.527L48.4693 99.9421C43.2989 107.117 40.7188 115.477 40.7188 125H41.7188ZM49.2792 100.529C54.3783 93.5239 61.3103 88.0819 70.0924 84.2075L69.6888 83.2925C60.7626 87.2306 53.6842 92.7782 48.4708 99.9401L49.2792 100.529ZM70.0947 84.2065C78.8755 80.2809 88.8304 78.3125 99.9688 78.3125V77.3125C88.7113 77.3125 78.6141 79.3024 69.6866 83.2935L70.0947 84.2065ZM99.9688 78.3125C111.265 78.3125 121.139 80.2815 129.602 84.2036L130.023 83.2963C121.403 79.3018 111.381 77.3125 99.9688 77.3125V78.3125ZM129.606 84.2052C138.127 88.0786 144.798 93.4668 149.638 100.365L150.456 99.791C145.504 92.7311 138.685 87.2339 130.019 83.2948L129.606 84.2052ZM149.639 100.367C154.473 107.207 156.97 115.076 157.125 123.993L158.125 123.976C157.967 114.872 155.413 106.804 150.455 99.7895L149.639 100.367ZM157.625 123.484H129.734V124.484H157.625V123.484ZM185.652 240H185.152V240.5H185.652V240ZM185.652 80V79.5H185.152V80H185.652ZM276.59 86.875L276.349 87.3131L276.35 87.3137L276.59 86.875ZM295.574 105.781L295.133 106.016L295.135 106.02L295.574 105.781ZM295.574 160.313L296.014 160.551L296.014 160.551L295.574 160.313ZM276.434 179.141L276.67 179.581L276.672 179.58L276.434 179.141ZM205.496 185.937H204.996V186.437H205.496V185.937ZM205.496 162.109V161.609H204.996V162.109H205.496ZM259.012 158.359L259.251 158.798L259.251 158.798L259.012 158.359ZM269.168 148.047L268.723 147.819L268.721 147.823L269.168 148.047ZM269.168 117.969L268.722 118.195L268.724 118.199L269.168 117.969ZM258.934 107.891L258.698 108.332L258.704 108.335L258.934 107.891ZM214.637 104.219V103.719H214.137V104.219H214.637ZM214.637 240V240.5H215.137V240H214.637ZM186.152 240V80H185.152V240H186.152ZM185.652 80.5H245.652V79.5H185.652V80.5ZM245.652 80.5C257.884 80.5 268.108 82.7805 276.349 87.3131L276.831 86.4369C268.405 81.8028 258.004 79.5 245.652 79.5V80.5ZM276.35 87.3137C284.654 91.8528 290.91 98.0861 295.133 106.016L296.016 105.546C291.696 97.4347 285.296 91.0638 276.83 86.4363L276.35 87.3137ZM295.135 106.02C299.413 113.907 301.559 122.886 301.559 132.969H302.559C302.559 122.739 300.381 113.593 296.014 105.543L295.135 106.02ZM301.559 132.969C301.559 143.157 299.413 152.188 295.135 160.074L296.014 160.551C300.381 152.5 302.559 143.301 302.559 132.969H301.559ZM295.135 160.074C290.861 167.953 284.553 174.161 276.195 178.701L276.672 179.58C285.189 174.953 291.642 168.61 296.014 160.551L295.135 160.074ZM276.197 178.7C267.85 183.183 257.546 185.437 245.262 185.437V186.437C257.665 186.437 268.142 184.161 276.67 179.581L276.197 178.7ZM245.262 185.437H205.496V186.437H245.262V185.437ZM205.996 185.937V162.109H204.996V185.937H205.996ZM205.496 162.609H241.355V161.609H205.496V162.609ZM241.355 162.609C248.597 162.609 254.572 161.351 259.251 158.798L258.772 157.92C254.285 160.368 248.489 161.609 241.355 161.609V162.609ZM259.251 158.798C263.918 156.253 267.379 152.743 269.615 148.27L268.721 147.823C266.582 152.101 263.272 155.466 258.772 157.92L259.251 158.798ZM269.613 148.275C271.894 143.819 273.027 138.713 273.027 132.969H272.027C272.027 138.579 270.921 143.525 268.723 147.819L269.613 148.275ZM273.027 132.969C273.027 127.225 271.894 122.144 269.612 117.739L268.724 118.199C270.921 122.44 272.027 127.358 272.027 132.969H273.027ZM269.614 117.743C267.375 113.319 263.884 109.887 259.163 107.446L258.704 108.335C263.254 110.686 266.586 113.973 268.722 118.195L269.614 117.743ZM259.169 107.45C254.49 104.951 248.49 103.719 241.199 103.719V104.719C248.387 104.719 254.21 105.935 258.698 108.332L259.169 107.45ZM241.199 103.719H214.637V104.719H241.199V103.719ZM214.137 104.219V240H215.137V104.219H214.137ZM214.637 239.5H185.652V240.5H214.637V239.5Z" fill="black" mask="url(#path-4-outside-2_1_6)"/>
</svg>
